<mxfile host="app.diagrams.net" modified="2021-11-01T20:08:59.660Z" agent="5.0 (Windows NT 10.0; Win64; x64) AppleWebKit/537.36 (KHTML, like Gecko) Chrome/95.0.4638.54 Safari/537.36 Edg/95.0.1020.40" etag="vwzMgsySFU8st69kq52j" version="15.6.4" type="github">
  <diagram id="XkIb_j8xa0R7AFq2mam2" name="Page-1">
    <mxGraphModel dx="933" dy="537" grid="1" gridSize="10" guides="1" tooltips="1" connect="1" arrows="1" fold="1" page="1" pageScale="1" pageWidth="827" pageHeight="1169" math="0" shadow="0">
      <root>
        <mxCell id="0" />
        <mxCell id="1" parent="0" />
        <mxCell id="r3lV4X0_ZvpxeNuVSfYO-1" value="&lt;font style=&quot;font-size: 15px&quot;&gt;&lt;b&gt;INÍCIO&lt;/b&gt;&lt;/font&gt;" style="ellipse;whiteSpace=wrap;html=1;fillColor=default;strokeColor=default;fontColor=default;" parent="1" vertex="1">
          <mxGeometry x="280" y="280" width="140" height="60" as="geometry" />
        </mxCell>
        <mxCell id="r3lV4X0_ZvpxeNuVSfYO-2" value="" style="endArrow=classic;html=1;rounded=0;fontSize=15;fontColor=default;exitX=0.5;exitY=1;exitDx=0;exitDy=0;strokeColor=default;labelBackgroundColor=default;" parent="1" source="r3lV4X0_ZvpxeNuVSfYO-1" edge="1">
          <mxGeometry width="50" height="50" relative="1" as="geometry">
            <mxPoint x="370" y="470" as="sourcePoint" />
            <mxPoint x="350" y="400" as="targetPoint" />
          </mxGeometry>
        </mxCell>
        <mxCell id="r3lV4X0_ZvpxeNuVSfYO-3" value="&lt;font style=&quot;font-size: 12px&quot;&gt;&amp;nbsp; &amp;nbsp; &amp;nbsp;Você é uma pessoa&lt;br&gt;&amp;nbsp; &amp;nbsp; &amp;nbsp;física ou jurídica?&lt;/font&gt;" style="shape=display;whiteSpace=wrap;html=1;fontSize=15;fontColor=default;strokeColor=default;fillColor=default;" parent="1" vertex="1">
          <mxGeometry x="270" y="400" width="160" height="60" as="geometry" />
        </mxCell>
        <mxCell id="r3lV4X0_ZvpxeNuVSfYO-4" value="" style="endArrow=classic;html=1;rounded=0;fontSize=15;fontColor=default;exitX=0;exitY=0;exitDx=85;exitDy=60;strokeColor=default;labelBackgroundColor=default;exitPerimeter=0;" parent="1" source="r3lV4X0_ZvpxeNuVSfYO-3" edge="1">
          <mxGeometry width="50" height="50" relative="1" as="geometry">
            <mxPoint x="360" y="350" as="sourcePoint" />
            <mxPoint x="355" y="520" as="targetPoint" />
          </mxGeometry>
        </mxCell>
        <mxCell id="r3lV4X0_ZvpxeNuVSfYO-5" value="&lt;br&gt;&amp;nbsp; Usuário escolhe X" style="shape=manualInput;whiteSpace=wrap;html=1;fontSize=12;fontColor=default;strokeColor=default;fillColor=default;" parent="1" vertex="1">
          <mxGeometry x="285" y="505" width="135" height="75" as="geometry" />
        </mxCell>
        <mxCell id="r3lV4X0_ZvpxeNuVSfYO-6" value="" style="endArrow=classic;html=1;rounded=0;labelBackgroundColor=default;fontSize=12;fontColor=default;strokeColor=default;exitX=1.001;exitY=0.582;exitDx=0;exitDy=0;exitPerimeter=0;" parent="1" source="r3lV4X0_ZvpxeNuVSfYO-5" edge="1">
          <mxGeometry width="50" height="50" relative="1" as="geometry">
            <mxPoint x="380" y="600" as="sourcePoint" />
            <mxPoint x="480" y="550" as="targetPoint" />
          </mxGeometry>
        </mxCell>
        <mxCell id="4LxbDe4i36ap6z6qhfDH-1" value="&lt;font style=&quot;font-size: 12px&quot;&gt;&amp;nbsp; &amp;nbsp; &amp;nbsp;Você escolheu: física.&lt;br&gt;&amp;nbsp; &amp;nbsp; Deseja prosseguir?&lt;/font&gt;" style="shape=display;whiteSpace=wrap;html=1;fontSize=15;fontColor=default;strokeColor=default;fillColor=default;" vertex="1" parent="1">
          <mxGeometry x="480" y="520" width="160" height="60" as="geometry" />
        </mxCell>
        <mxCell id="4LxbDe4i36ap6z6qhfDH-3" value="" style="endArrow=classic;html=1;rounded=0;labelBackgroundColor=default;fontSize=12;fontColor=default;strokeColor=default;exitX=0;exitY=0;exitDx=85;exitDy=60;exitPerimeter=0;" edge="1" parent="1" source="4LxbDe4i36ap6z6qhfDH-1">
          <mxGeometry width="50" height="50" relative="1" as="geometry">
            <mxPoint x="390" y="760" as="sourcePoint" />
            <mxPoint x="565" y="640" as="targetPoint" />
          </mxGeometry>
        </mxCell>
        <mxCell id="4LxbDe4i36ap6z6qhfDH-4" value="Usuário desejou&lt;br&gt;prosseguir?" style="rhombus;whiteSpace=wrap;html=1;fontSize=12;fontColor=default;strokeColor=default;fillColor=default;" vertex="1" parent="1">
          <mxGeometry x="480" y="640" width="170" height="110" as="geometry" />
        </mxCell>
        <mxCell id="4LxbDe4i36ap6z6qhfDH-6" value="" style="endArrow=none;html=1;rounded=0;labelBackgroundColor=default;fontSize=12;fontColor=default;strokeColor=default;exitX=1;exitY=0.5;exitDx=0;exitDy=0;" edge="1" parent="1" source="4LxbDe4i36ap6z6qhfDH-4">
          <mxGeometry width="50" height="50" relative="1" as="geometry">
            <mxPoint x="460" y="840" as="sourcePoint" />
            <mxPoint x="740" y="695" as="targetPoint" />
          </mxGeometry>
        </mxCell>
        <mxCell id="4LxbDe4i36ap6z6qhfDH-8" value="" style="endArrow=none;html=1;rounded=0;labelBackgroundColor=default;fontSize=12;fontColor=default;strokeColor=default;" edge="1" parent="1">
          <mxGeometry width="50" height="50" relative="1" as="geometry">
            <mxPoint x="740" y="696" as="sourcePoint" />
            <mxPoint x="740" y="430" as="targetPoint" />
          </mxGeometry>
        </mxCell>
        <mxCell id="4LxbDe4i36ap6z6qhfDH-9" value="" style="endArrow=classic;html=1;rounded=0;labelBackgroundColor=default;fontSize=12;fontColor=default;strokeColor=default;entryX=1;entryY=0.5;entryDx=0;entryDy=0;entryPerimeter=0;" edge="1" parent="1" target="r3lV4X0_ZvpxeNuVSfYO-3">
          <mxGeometry width="50" height="50" relative="1" as="geometry">
            <mxPoint x="740" y="430" as="sourcePoint" />
            <mxPoint x="640" y="660" as="targetPoint" />
          </mxGeometry>
        </mxCell>
        <mxCell id="4LxbDe4i36ap6z6qhfDH-10" value="&lt;b&gt;&lt;font style=&quot;font-size: 13px&quot;&gt;NÃO&lt;/font&gt;&lt;/b&gt;" style="text;html=1;strokeColor=none;fillColor=none;align=center;verticalAlign=middle;whiteSpace=wrap;rounded=0;fontSize=12;fontColor=default;" vertex="1" parent="1">
          <mxGeometry x="660" y="660" width="60" height="50" as="geometry" />
        </mxCell>
        <mxCell id="4LxbDe4i36ap6z6qhfDH-11" value="" style="endArrow=classic;html=1;rounded=0;labelBackgroundColor=default;fontSize=13;fontColor=default;strokeColor=default;exitX=0.5;exitY=1;exitDx=0;exitDy=0;" edge="1" parent="1" source="4LxbDe4i36ap6z6qhfDH-4">
          <mxGeometry width="50" height="50" relative="1" as="geometry">
            <mxPoint x="530" y="870" as="sourcePoint" />
            <mxPoint x="565" y="820" as="targetPoint" />
          </mxGeometry>
        </mxCell>
        <mxCell id="4LxbDe4i36ap6z6qhfDH-12" value="&lt;b&gt;&lt;font style=&quot;font-size: 13px&quot;&gt;SIM&lt;/font&gt;&lt;/b&gt;" style="text;html=1;strokeColor=none;fillColor=none;align=center;verticalAlign=middle;whiteSpace=wrap;rounded=0;fontSize=12;fontColor=default;" vertex="1" parent="1">
          <mxGeometry x="560" y="750" width="60" height="50" as="geometry" />
        </mxCell>
      </root>
    </mxGraphModel>
  </diagram>
</mxfile>
